<svg id="Layer_1" data-name="Layer 1" xmlns="http://www.w3.org/2000/svg" viewBox="0 0 1024 1024"><defs><style>.cls-1{fill:#43a1ff;}.cls-2{fill:#fff;}.cls-3{fill:#12609b;}.cls-4{font-size:249.39px;fill:#3c3c3b;font-family:OpenSans-Bold, Open Sans;font-weight:700;letter-spacing:0.3em;}.cls-5{fill:#2cb9ff;}</style></defs><rect class="cls-1" x="-1.14" y="-1.14" width="1026.27" height="1026.27" rx="513.13"/><rect class="cls-2" x="160.76" y="294.42" width="702.49" height="435.17" rx="10.38"/><path class="cls-3" d="M170.94,294.42H855.45a7.79,7.79,0,0,1,7.79,7.79v66.08a0,0,0,0,1,0,0H160.76a0,0,0,0,1,0,0V304.6A10.18,10.18,0,0,1,170.94,294.42Z"/><circle class="cls-2" cx="216.85" cy="331.35" r="13.27"/><circle class="cls-2" cx="259.67" cy="331.35" r="13.27"/><circle class="cls-2" cx="302.01" cy="331.35" r="13.27"/><text class="cls-4" transform="translate(235.13 630.83)">&lt;/&gt;</text><path class="cls-5" d="M732.76,339.13a6.09,6.09,0,0,1-1.25-3.79h0a10.86,10.86,0,0,1,2.4-6.21h0a16.57,16.57,0,0,1,5-4.48h0a7.68,7.68,0,0,1,3.62-1.1h0a3.85,3.85,0,0,1,.69.06h0a6.68,6.68,0,0,1,4,2.06h0a6.28,6.28,0,0,1,.47.58h0c.13-1.21.28-2.7.43-4.26h0c.37-3.65.73-7.7.74-8.94h0c0-.1,0-.18,0-.22h0a8.75,8.75,0,0,1-.3-2h0a2.46,2.46,0,0,1,.29-1.23h0a1.51,1.51,0,0,1,1.31-.72h.05a3,3,0,0,1,3,3.06h0a3.32,3.32,0,0,1-.17,1h0v0h0a1,1,0,0,1,0,.12h0a4.62,4.62,0,0,0-.08.46h0c-.07.38-.14.91-.22,1.54h0c-.16,1.26-.35,3-.53,4.8h0c-.34,3.38-.67,7.32-.8,10.26h0a3.14,3.14,0,0,1,1,.48h0a1.86,1.86,0,0,1,.71,1h0a3.37,3.37,0,0,1,.12.87h0a1.94,1.94,0,0,1-.41,1.21h0a2.19,2.19,0,0,1-.88.65h0c-.37.16-.74.27-1.11.4h0a14.43,14.43,0,0,1,.17,2h0a5.38,5.38,0,0,1-.11,1.14h0a2.14,2.14,0,0,1-.6,1.12h0a1.5,1.5,0,0,1-1,.36h-.2a3.15,3.15,0,0,1-1.52-.56h0a2.24,2.24,0,0,1-.81-1.11h0c-.06-.18-.1-.36-.14-.52h0c-.65.4-1.52.92-2.52,1.44h0a17.15,17.15,0,0,1-7.34,2.26h-.06a4.81,4.81,0,0,1-3.94-1.81Zm5.29-8.73c-1.49,1.69-2.53,3.86-2.51,5.1h0a1.37,1.37,0,0,0,.31,1h0a1.59,1.59,0,0,0,1.2.44h0a10.29,10.29,0,0,0,4.25-1.47h0c1.51-.8,3.12-1.81,4.65-2.74h0c-.06-.32-.15-.74-.28-1.2h0a9.29,9.29,0,0,0-1.37-3.05h0a2.3,2.3,0,0,0-1.31-.93h0a2,2,0,0,0-.35,0h-.06c-1.21,0-3.09,1.2-4.53,2.9Zm19.2,6.43a17.18,17.18,0,0,1-2.2-5.45h0a44.86,44.86,0,0,1-1.15-8.75h0c0-.12,0-.23,0-.34h0a2.34,2.34,0,0,1,.45-1.5h0a1.66,1.66,0,0,1,1.32-.63h0a1.87,1.87,0,0,1,.34,0h0a2.33,2.33,0,0,1,1.73,1.16h0a2.67,2.67,0,0,1,.31,1.32h0v0h0c0,.36,0,.72,0,1.06h0a36,36,0,0,0,.52,6.85h0a9,9,0,0,0,1.41,3.8h0a1.18,1.18,0,0,0,.88.53h0a1.37,1.37,0,0,0,.59-.16h0a4.42,4.42,0,0,0,1.85-2.07h0a13.43,13.43,0,0,0,1-3.39h0a31,31,0,0,0,.43-5.3h0v-.14h0a2.67,2.67,0,0,1,.33-1.4h0a2,2,0,0,1,1.81-.92H767a1.87,1.87,0,0,1,1.25.53h0a2.56,2.56,0,0,1,.57.89h0a4,4,0,0,1,.26,1.1h0v.18c-.06.5-.21,2.64-.62,5.09h0a22.07,22.07,0,0,1-2.38,7.37h0a5.27,5.27,0,0,1-3.67,2.77h0a6.11,6.11,0,0,1-.73.05h0a5.43,5.43,0,0,1-4.44-2.72Zm17.14,4.1a2,2,0,0,1-.35,0h0a2.38,2.38,0,0,1-1.64-1h0a2,2,0,0,1-.35-.89h0l-.23-.06h0a2,2,0,0,1-1.23-.95h0l0,0,0-.05a.85.85,0,0,1-.07-.26h0s0-.08,0-.12h0c0-.08,0-.17,0-.29h0c0-.22,0-.53,0-.9h0c0-.74,0-1.75,0-2.92h0c0-2.43.11-5.49.4-8.06h0a2.53,2.53,0,0,1-.61-1.4h0v0s0-.1,0-.16h0a2,2,0,0,1,.62-1.34h0a3.6,3.6,0,0,1,.7-.58h0c0-.11.06-.25.1-.41h0c.12-.5.28-1.22.43-2h0a32.05,32.05,0,0,0,.64-5.46h0v-.26h0a4.15,4.15,0,0,0-.16-.76h0a5.06,5.06,0,0,1-.22-1.34h0a2,2,0,0,1,.43-1.27h0a2.1,2.1,0,0,1,1.4-.68h.18a1.81,1.81,0,0,1,1.16.48h0a3.3,3.3,0,0,1,.73.95h0a6.24,6.24,0,0,1,.67,2.82h0v.29h0a15,15,0,0,1-.44,3.43h0c-.2.94-.45,2-.73,3.45h0a16.77,16.77,0,0,1,4.77.74h0a7.86,7.86,0,0,1,5,4.06h0a3.3,3.3,0,0,1,.31,1.47h0a7,7,0,0,1-1.2,3.48h0a21.93,21.93,0,0,1-2.59,3.34h0a63.78,63.78,0,0,1-5.21,4.95h0c-.3.26-.53.46-.56.5h0a2.94,2.94,0,0,0-.39.48h0a1.9,1.9,0,0,1-.61.63h0a1.54,1.54,0,0,1-.76.2h0Zm-.08-10a44,44,0,0,0,.23,4.86h0c.41-.32.9-.71,1.42-1.15h0a27.86,27.86,0,0,0,4.38-4.44h0a5,5,0,0,0,1.17-2.59h0a1.05,1.05,0,0,0-.11-.52h0a3.36,3.36,0,0,0-2-1.32h0a11.92,11.92,0,0,0-3.68-.57h0l-.78,0h0c-.06.29-.12.65-.19,1.07h0a33.46,33.46,0,0,0-.41,3.77h0c0,.3,0,.58,0,.87Zm14.9,11.21a2.67,2.67,0,0,1-1.48-.53h0a1.68,1.68,0,0,1-.63-1h0a6,6,0,0,1-.2-1.18h0a30.3,30.3,0,0,1-.12-3.4h0c0-5.22.64-13.27,1-18h0c.18-2.37.31-4.4.43-6h0a18,18,0,0,1,.48-3.44h0a1.63,1.63,0,0,1,.41-.7h0a2.17,2.17,0,0,1,1.47-.63h0a2.62,2.62,0,0,1,1.86,1h0a2.19,2.19,0,0,1,.48.83h0a3.68,3.68,0,0,1,.12,1h0c0,.88-.18,2.06-.45,4.14h0c-.28,2.08-.67,5-1.12,9.34h0c-.36,3.35-.54,6.77-.56,9.75h0c0,1.92.06,3.66.19,5.06h0v0h0c0,.19,0,.43,0,.69h0a6.47,6.47,0,0,1-.12,1.27h0a2.46,2.46,0,0,1-.66,1.33h0a1.65,1.65,0,0,1-1.12.46h0Zm6.71-2.81.41-.84-.41.84a6.13,6.13,0,0,1-2.48-2.64h0a9.12,9.12,0,0,1-1.07-4.35h0a9,9,0,0,1,.72-3.51h0a20.51,20.51,0,0,1,3.61-6h0a6.29,6.29,0,0,1,4-2.17h0l.36,0h0a6.32,6.32,0,0,1,3.78,1.48h0a8.23,8.23,0,0,1,2.83,5.22h0a11.74,11.74,0,0,1,.13,1.75h0a10.66,10.66,0,0,1-3.54,7.79h0a10.16,10.16,0,0,1-6.45,2.88h0a4.35,4.35,0,0,1-1.86-.4Zm5.42-14.46a1.44,1.44,0,0,0-.3.1h0a5.09,5.09,0,0,0-1.17.73h0a11.32,11.32,0,0,0-3.23,5.4h0a3.72,3.72,0,0,0-.18,1.21h0a5.65,5.65,0,0,0,.43,2.18h0a2,2,0,0,0,1.05,1.14h0a1.58,1.58,0,0,0,.35.06h0a4.78,4.78,0,0,0,2.53-1.16h0a7.13,7.13,0,0,0,1.93-2.19h0v0a8.71,8.71,0,0,0,1.07-3.77h0a5,5,0,0,0-.51-2.24h0v0h0a2.89,2.89,0,0,0-.72-1.14h0a1.94,1.94,0,0,0-.75-.36h0l-.44.06h0l-.06,0Zm-.24-.22.08-.7-.08.7Zm-84.33,5.47a15.1,15.1,0,0,1,2.76-3.18,17.8,17.8,0,0,1,7.48-3.43l1.3.13a5.53,5.53,0,0,1,2.9,1.4c.78.73,1,1.84.65,3.35A5.65,5.65,0,0,1,729,332a12.83,12.83,0,0,1-5,1.74c-1.8.24-2.79.55-3,.93s0,.85.66,1.42,2.15,1.1,4.55,1.57a20.4,20.4,0,0,0,6,.46,21.63,21.63,0,0,0,3.92-.74c1-.31,2.11.77,2.68.7s1,.27,1.2,1c-1.17,1.25-2.68.85-3.94,1.34a22.23,22.23,0,0,1-4.61,1.16,27,27,0,0,1-6.53,0l-1.52-.22a18.72,18.72,0,0,1-5.38-1.89,6.6,6.6,0,0,1-2-2,6.33,6.33,0,0,1-.72-3A11.16,11.16,0,0,1,716.77,330.08Zm4.11,1.4a14.52,14.52,0,0,0,4.89-1.5c.86-.56,1.28-1.14,1.25-1.72s-.68-.65-1.92-.22a6.67,6.67,0,0,0-2.66,1.5A18.3,18.3,0,0,0,720.88,331.48Z"/><path class="cls-5" d="M799.76,354.93a18.52,18.52,0,0,1-9.33-4.62h0a1.52,1.52,0,0,1-.5-1.09h0a2.46,2.46,0,0,1,0-.26h0a2.14,2.14,0,0,1,.63-1.17h0a2.26,2.26,0,0,1,1.23-.59h0a1,1,0,0,1,.24,0h0a1.72,1.72,0,0,1,1.2.5h0a11.72,11.72,0,0,0,2.58,1.73h0a21.4,21.4,0,0,0,3,1.25h0a22.21,22.21,0,0,0,4.7.92h0c.52,0,1,.06,1.56.05h0a17.94,17.94,0,0,0,3.19-.29h0a18.83,18.83,0,0,0,4.06-1.22h0a9.22,9.22,0,0,0,4.2-4.61h0a25,25,0,0,0,1.3-7.72h0c-.27.36-.55.71-.85,1h0a9.8,9.8,0,0,1-1.75,1.53h0a6.89,6.89,0,0,1-2.66,1h0a2.59,2.59,0,0,1-.48,0h0a2.71,2.71,0,0,1-1.24-.28h0a4.32,4.32,0,0,1-1.29-.93h0a6.36,6.36,0,0,1-1.72-4.21h0c0-.16,0-.31,0-.46h0a10.89,10.89,0,0,1,.91-4.35h0a26.83,26.83,0,0,1,2.33-4.38h0c.22-.34.62-.87,1.22-1.63h0a18.14,18.14,0,0,1,2.16-2.26h0a12.3,12.3,0,0,1,2.69-1.83h0a4.19,4.19,0,0,1,1.91-.48h0a3.43,3.43,0,0,1,1,.14h0a1.47,1.47,0,0,1,.56.28h0a.66.66,0,0,1,.27.52h0s0,.07,0,.11h0a1.86,1.86,0,0,1-.49.91h.15a3.61,3.61,0,0,1,.63.06h0c1.1.17,1.82.83,1.8,1.8h0v.16h0q-.27,3.88-.52,7.78h0c-.18,2.6-.48,5.19-.8,7.76h0a29.35,29.35,0,0,1-1.41,6.51h0a12.56,12.56,0,0,1-1.36,2.75h0a11.67,11.67,0,0,1-3.66,3.39h0a17.58,17.58,0,0,1-4.79,2h0a21.93,21.93,0,0,1-5.39.68h0a25.73,25.73,0,0,1-5.31-.54Zm18.51-30.48a7.9,7.9,0,0,0-.84.88h0l-.91,1.08h0a12.86,12.86,0,0,0-1.48,2.17h0c-.39.74-.77,1.5-1.15,2.28h0a11.49,11.49,0,0,0-1.5,4.82h0v0h0a4.82,4.82,0,0,0,.16,1.36h0c.09.28.19.39.26.41h0l.07,0h0a2.22,2.22,0,0,0,.23-.19h0a7.19,7.19,0,0,0,.73-.9h0a23.4,23.4,0,0,0,2.12-3.94h0a34.75,34.75,0,0,0,1.54-4.2h0c.41-1.4.83-2.81,1.26-4.21h0c-.19.15-.35.29-.5.43Z"/><path class="cls-5" d="M826.87,341.17a9.48,9.48,0,0,1-3.09-2.91h0a1.41,1.41,0,0,1-.27-.81h0a1.42,1.42,0,0,1,.12-.57h0a2.5,2.5,0,0,1,.83-1.12h0a2.47,2.47,0,0,1,1.25-.52h.16a1.29,1.29,0,0,1,1.1.59h0a6.7,6.7,0,0,0,1.87,1.75h0a1.43,1.43,0,0,0,.78.27h0a1.29,1.29,0,0,0,.91-.47h0s0-.05,0-.08h0l.08-.2h0a2.45,2.45,0,0,0,.15-.92h0v0h0a4.15,4.15,0,0,0-.32-1.42h0A4.73,4.73,0,0,0,829.1,333h0a12,12,0,0,0-1.19-.9h0a5.56,5.56,0,0,1-1.18-1.09h0a4.4,4.4,0,0,1-1-2.85h0a4.81,4.81,0,0,1,.07-.92h0a6,6,0,0,1,2.38-3.9h0a10.4,10.4,0,0,1,4.07-1.95h0a1.75,1.75,0,0,1,.32,0h0a1.22,1.22,0,0,1,.92.42h0a1.38,1.38,0,0,1,.37.94h0a1.33,1.33,0,0,1,0,.28h0a2.45,2.45,0,0,1-1.54,1.84h0a6.46,6.46,0,0,0-1.14.67h0a4.79,4.79,0,0,0-1.08,1h0a2.16,2.16,0,0,0-.48,1.12h0v.09h0a1.25,1.25,0,0,0,.53.92h0a14.58,14.58,0,0,0,1.33,1.05h0a6.94,6.94,0,0,1,1.32,1.23h0a14.87,14.87,0,0,1,1.34,1.95h0a5.79,5.79,0,0,1,.76,2.3h0a6.79,6.79,0,0,1,0,.78h0a6.81,6.81,0,0,1-.73,3.12h0a4.88,4.88,0,0,1-3,2.54h0a5.42,5.42,0,0,1-1.7.29h0a4.9,4.9,0,0,1-2.55-.72Zm3.93-3.73v0Zm-.11-.1-.07-.08.07.08Z"/><path class="cls-5" d="M823,314.32c.3-.44.62-.86,1.26-.79a1,1,0,0,1,.89,1.06,2.2,2.2,0,0,1-.38.89l-1.7,2.57c-.3.45-.62.86-1.27.79a1,1,0,0,1-.88-1.06,2.07,2.07,0,0,1,.38-.89Z"/><path class="cls-5" d="M817.08,313.85c0-.53,0-1.06.54-1.39a1,1,0,0,1,1.34.31,1.94,1.94,0,0,1,.23.93l.19,3.08c0,.54,0,1.07-.53,1.4a1,1,0,0,1-1.34-.31,2.1,2.1,0,0,1-.24-.94Z"/><path class="cls-5" d="M812.13,315.5a1.32,1.32,0,0,1,0-1.5,1,1,0,0,1,1.35-.24,2.08,2.08,0,0,1,.58.77l1.37,2.77a1.31,1.31,0,0,1,.05,1.49,1,1,0,0,1-1.35.24,1.93,1.93,0,0,1-.58-.77Z"/><path class="cls-5" d="M812,319.47c.46.28.89.59.84,1.23a1,1,0,0,1-1,.94,2,2,0,0,1-.9-.34l-2.64-1.58c-.45-.28-.88-.59-.84-1.24a1,1,0,0,1,1-.93,2,2,0,0,1,.91.34Z"/><path class="cls-5" d="M827.08,317.69a1.3,1.3,0,0,1,1.47-.2,1,1,0,0,1,.39,1.32,1.91,1.91,0,0,1-.71.66l-2.58,1.67a1.32,1.32,0,0,1-1.48.2,1,1,0,0,1-.38-1.32,2,2,0,0,1,.7-.66Z"/></svg>